<svg width="31" height="31" viewBox="0 0 31 31" fill="none" xmlns="http://www.w3.org/2000/svg">
<path d="M23.25 28.4166V19.375C23.25 17.9482 22.0934 16.7916 20.6666 16.7916C19.2399 16.7916 18.0833 17.9482 18.0833 19.375V28.4166H12.9166" stroke="white" stroke-width="3.41667" stroke-linecap="round" stroke-linejoin="round"/>
<path d="M12.9166 28.4167V19.375C12.9166 15.0948 16.3864 11.625 20.6666 11.625C24.9468 11.625 28.4166 15.0948 28.4166 19.375V28.4167H23.25" stroke="white" stroke-width="3.41667" stroke-linecap="round" stroke-linejoin="round"/>
<path d="M9.04167 11.625H3.875V28.4167H9.04167V11.625Z" stroke="white" stroke-width="3.41667" stroke-linecap="round" stroke-linejoin="round"/>
<path d="M6.45833 7.75004C7.88507 7.75004 9.04167 6.59344 9.04167 5.16671C9.04167 3.73997 7.88507 2.58337 6.45833 2.58337C5.0316 2.58337 3.875 3.73997 3.875 5.16671C3.875 6.59344 5.0316 7.75004 6.45833 7.75004Z" stroke="white" stroke-width="3.41667" stroke-linecap="round" stroke-linejoin="round"/>
</svg>
