<svg width="41" height="41" viewBox="0 0 41 41" fill="none" xmlns="http://www.w3.org/2000/svg">
<path d="M1.97192 14.3059H9.77986V37.9091H1.97192V14.3059Z" stroke="#00ABF0" stroke-width="1.28125" stroke-miterlimit="10" stroke-linecap="round" stroke-linejoin="round"/>
<path d="M29.9294 13.5251C26.5059 13.5251 24.4642 14.7865 22.3021 17.5489V14.3061H14.4941V37.9093H22.3617V25.1166C22.3617 22.4138 23.7428 19.7712 26.8659 19.7712C29.9889 19.7712 31.8506 22.4138 31.8506 25.0564V37.9093H39.7188V24.5164C39.7188 15.2068 33.4124 13.5251 29.9294 13.5251Z" stroke="#00ABF0" stroke-width="1.28125" stroke-miterlimit="10" stroke-linecap="round" stroke-linejoin="round"/>
<path d="M5.90592 2.83472C3.32356 2.83472 1.28125 4.69637 1.28125 6.97892C1.28125 9.26147 3.32356 11.1231 5.90592 11.1231C8.48828 11.1231 10.5306 9.26147 10.5306 6.97892C10.5306 4.69637 8.48828 2.83472 5.90592 2.83472Z" stroke="#00ABF0" stroke-width="1.28125" stroke-miterlimit="10" stroke-linecap="round" stroke-linejoin="round"/>
</svg>
