<svg width="39" height="39" viewBox="0 0 39 39" fill="none" xmlns="http://www.w3.org/2000/svg">
<g clip-path="url(#clip0_1278_1249)">
<path d="M18.4561 1.23659C15.4322 1.38567 12.4938 2.28919 9.90852 3.86482C7.32328 5.44044 5.17351 7.63804 3.65514 10.2573C2.13678 12.8766 1.29812 15.8342 1.2156 18.8607C1.13309 21.8871 1.80934 24.886 3.18273 27.5841L1.25771 36.9283C1.23376 37.0444 1.23945 37.1647 1.27427 37.2781C1.3091 37.3914 1.37192 37.4942 1.45694 37.5768C1.54196 37.6595 1.64644 37.7194 1.76073 37.751C1.87502 37.7826 1.99543 37.7849 2.11084 37.7576L11.2685 35.5877C13.7502 36.8219 16.4818 37.4708 19.2534 37.4846C22.025 37.4985 24.7629 36.8768 27.2567 35.6675C29.7506 34.4581 31.9341 32.6932 33.6395 30.5084C35.3449 28.3235 36.5268 25.7768 37.0945 23.064C37.6621 20.3511 37.6004 17.5442 36.914 14.8589C36.2276 12.1736 34.9349 9.68131 33.1351 7.57355C31.3353 5.4658 29.0763 3.79862 26.5316 2.70009C23.987 1.60156 21.2244 1.10091 18.4561 1.23659Z" stroke="#00ABF0" stroke-width="1.21875" stroke-miterlimit="10" stroke-linecap="round"/>
<path d="M28.1433 23.2812L24.6302 22.2727C24.4035 22.2078 24.1635 22.2052 23.9354 22.2654C23.7074 22.3256 23.4999 22.4462 23.3347 22.6146L22.4755 23.4896C22.2986 23.6707 22.0721 23.7952 21.8244 23.8475C21.5768 23.8998 21.3192 23.8775 21.0843 23.7834C19.4225 23.113 15.9271 20.0052 15.035 18.4489C14.9097 18.2289 14.8524 17.9768 14.8704 17.7242C14.8884 17.4717 14.9809 17.2302 15.1362 17.0303L15.8857 16.0601C16.03 15.8735 16.1212 15.6514 16.1496 15.4172C16.178 15.1831 16.1426 14.9456 16.0472 14.7299L14.5701 11.3875C14.4877 11.2012 14.3629 11.0367 14.2058 10.9071C14.0487 10.7774 13.8635 10.6862 13.6649 10.6407C13.4664 10.5953 13.26 10.5967 13.0621 10.645C12.8642 10.6933 12.6803 10.787 12.525 10.9188C11.5445 11.7482 10.3818 13.0078 10.2405 14.4039C9.99122 16.8651 11.0467 19.9675 15.0375 23.692C19.648 27.996 23.3408 28.567 25.7448 27.982C27.1086 27.6517 28.1981 26.3281 28.8855 25.244C28.9949 25.0722 29.0628 24.8773 29.0837 24.6746C29.1046 24.472 29.078 24.2673 29.0059 24.0768C28.9339 23.8862 28.8184 23.7151 28.6687 23.577C28.5189 23.4389 28.339 23.3376 28.1433 23.2812Z" stroke="#00ABF0" stroke-width="1.21875" stroke-miterlimit="10" stroke-linecap="round"/>
</g>
<defs>
<clipPath id="clip0_1278_1249">
<rect width="39" height="39" fill="white"/>
</clipPath>
</defs>
</svg>
